P2
1 4
254
0 254 254 254
